<?xml version="1.0" encoding="UTF-8" standalone="no"?>
<!DOCTYPE svg PUBLIC "-//W3C//DTD SVG 1.1//EN" "http://www.w3.org/Graphics/SVG/1.1/DTD/svg11.dtd">
<svg width="100%" height="100%" viewBox="0 0 23 29" version="1.1" xmlns="http://www.w3.org/2000/svg" xmlns:xlink="http://www.w3.org/1999/xlink" xml:space="preserve" xmlns:serif="http://www.serif.com/" style="fill-rule:evenodd;clip-rule:evenodd;stroke-linejoin:round;stroke-miterlimit:2;">
    <g transform="matrix(0.24,0,0,0.24,-611.04,-1705.68)">
        <g id="Artboard1" transform="matrix(0.5,0,0,0.630594,1272.89,2625.05)">
            <rect x="2546.23" y="7107.51" width="189.493" height="189.493" style="fill:none;"/>
            <g transform="matrix(1.10349,-1.95466e-32,-2.46519e-32,0.874961,-7752.75,6269.59)">
                <path d="M9416,986C9446.91,986 9472,1011.09 9472,1042C9472,1072.91 9416,1142.28 9416,1142.28C9416,1142.28 9360,1072.91 9360,1042C9360,1011.09 9385.09,986 9416,986Z"/>
            </g>
            <g transform="matrix(1.10349,-1.95466e-32,-2.46519e-32,0.874961,-7752.75,6269.59)">
                <path d="M9416,970.896C9455.24,970.896 9487.1,1002.76 9487.1,1042C9487.1,1053.08 9481.68,1068.5 9473.24,1084.38C9456.17,1116.51 9427.75,1151.77 9427.75,1151.77C9424.89,1155.32 9420.57,1157.38 9416,1157.38C9411.43,1157.38 9407.11,1155.32 9404.25,1151.77C9404.25,1151.77 9375.83,1116.51 9358.76,1084.38C9350.33,1068.5 9344.9,1053.08 9344.9,1042C9344.9,1002.76 9376.76,970.896 9416,970.896ZM9416,986C9385.09,986 9360,1011.09 9360,1042C9360,1072.91 9416,1142.28 9416,1142.28C9416,1142.28 9472,1072.91 9472,1042C9472,1011.09 9446.91,986 9416,986Z" style="fill:rgb(255,189,0);"/>
            </g>
        </g>
        <g id="CoursDeau">
        </g>
        <g id="Verdure">
        </g>
        <g id="Routes">
        </g>
        <g id="Délimitation">
        </g>
    </g>
</svg>
